HIERARCHY
ROOT root
{
	OFFSET 0.000000 0.000000 0.000000
	CHANNELS 6 Xposition Yposition Zposition Zrotation Yrotation Xrotation
	JOINT lhip
	{
		OFFSET 0.058581 -0.082280 -0.017664
		CHANNELS 3 Zrotation Yrotation Xrotation
		JOINT lknee
		{
			OFFSET 0.043451 -0.386469 0.008037
			CHANNELS 3 Zrotation Yrotation Xrotation
			JOINT lankle
			{
				OFFSET -0.014790 -0.426874 -0.037428
				CHANNELS 3 Zrotation Yrotation Xrotation
				JOINT ltoe
				{
					OFFSET 0.041054 -0.060286 0.122042
					CHANNELS 3 Zrotation Yrotation Xrotation
					End Site
					{
						OFFSET 0.000000 0.000000 0.000000
					}
				}
			}
		}
	}
	JOINT rhip
	{
		OFFSET -0.060310 -0.090513 -0.013543
		CHANNELS 3 Zrotation Yrotation Xrotation
		JOINT rknee
		{
			OFFSET -0.043257 -0.383688 -0.004843
			CHANNELS 3 Zrotation Yrotation Xrotation
			JOINT rankle
			{
				OFFSET 0.019056 -0.420046 -0.034562
				CHANNELS 3 Zrotation Yrotation Xrotation
				JOINT rtoe
				{
					OFFSET -0.034840 -0.062106 0.130323
					CHANNELS 3 Zrotation Yrotation Xrotation
					End Site
					{
						OFFSET 0.000000 0.000000 0.000000
					}
				}
			}
		}
	}
	JOINT lowerback
	{
		OFFSET 0.004439 0.124404 -0.038385
		CHANNELS 3 Zrotation Yrotation Xrotation
		JOINT upperback
		{
			OFFSET 0.004488 0.137956 0.026820
			CHANNELS 3 Zrotation Yrotation Xrotation
			JOINT chest
			{
				OFFSET -0.002265 0.056032 0.002855
				CHANNELS 3 Zrotation Yrotation Xrotation
				JOINT lowerneck
				{
					OFFSET -0.013390 0.211636 -0.033468
					CHANNELS 3 Zrotation Yrotation Xrotation
					JOINT upperneck
					{
						OFFSET 0.010113 0.088937 0.050410
						CHANNELS 3 Zrotation Yrotation Xrotation
						End Site
						{
							OFFSET 0.000000 0.000000 0.000000
						}
					}
				}
				JOINT lclavicle
				{
					OFFSET 0.071702 0.114000 -0.018898
					CHANNELS 3 Zrotation Yrotation Xrotation
					JOINT lshoulder
					{
						OFFSET 0.122921 0.045205 -0.019046
						CHANNELS 3 Zrotation Yrotation Xrotation
						JOINT lelbow
						{
							OFFSET 0.255332 -0.015649 -0.022946
							CHANNELS 3 Zrotation Yrotation Xrotation
							JOINT lwrist
							{
								OFFSET 0.265709 0.012698 -0.007375
								CHANNELS 3 Zrotation Yrotation Xrotation
								End Site
								{
									OFFSET 0.000000 0.000000 0.000000
								}
							}
						}
					}
				}
				JOINT rclavicle
				{
					OFFSET -0.082954 0.112472 -0.023707
					CHANNELS 3 Zrotation Yrotation Xrotation
					JOINT rshoulder
					{
						OFFSET -0.113228 0.046853 -0.008472
						CHANNELS 3 Zrotation Yrotation Xrotation
						JOINT relbow
						{
							OFFSET -0.260127 -0.014369 -0.031269
							CHANNELS 3 Zrotation Yrotation Xrotation
							JOINT rwrist
							{
								OFFSET -0.269108 0.006794 -0.006027
								CHANNELS 3 Zrotation Yrotation Xrotation
								End Site
								{
									OFFSET 0.000000 0.000000 0.000000
								}
							}
						}
					}
				}
			}
		}
	}
}
MOTION
Frames: 10
Frame Time: 0.033333
-0.759988 0.275532 1.004620 90.278219 1.181451 88.670370 4.527149 3.790452 1.255926 -4.801899 1.504010 0.618237 -0.551241 8.385028 -4.108535 0.000000 -0.000000 0.000000 -4.091131 -2.848666 -2.151260 4.920361 -3.762155 5.107214 4.077911 -3.629674 -3.247026 0.000000 -0.000000 0.000000 0.119821 0.621640 8.730842 1.991147 -4.296086 6.454726 1.376598 -1.349354 -4.018717 -1.754939 0.802812 6.783211 2.699195 -2.200294 10.999455 -25.086025 -12.606174 4.889857 -58.124452 -19.364394 13.456295 7.003004 -17.801975 -3.786512 -0.255252 -8.054370 -2.944602 25.631752 13.507231 6.803595 56.500137 14.713719 14.179402 -12.064407 18.399298 -7.570635 2.465641 5.130433 -3.543225 
-0.758925 0.275353 1.004466 90.182040 1.275730 88.935702 4.669149 3.867817 1.306147 -4.869082 1.777689 0.118536 -0.641204 8.147268 -3.940017 0.000000 -0.000000 0.000000 -3.996097 -3.368665 -2.101478 4.927645 -3.502411 4.570316 4.308371 -3.329007 -3.014361 0.000000 -0.000000 0.000000 0.227274 0.779093 8.231335 1.958979 -4.333592 6.259947 1.373117 -1.370301 -3.962384 -1.654966 0.813829 6.856870 2.632872 -2.276336 11.176592 -24.930755 -12.735942 4.746229 -58.282515 -19.631306 13.551792 6.985874 -18.111124 -3.734866 -0.069154 -7.986867 -2.944624 25.506101 13.613010 6.692122 56.562873 15.080350 14.240437 -12.264099 18.834526 -7.819538 2.391140 5.232520 -3.503215 
-0.757505 0.275514 1.004309 90.230771 1.303008 88.960800 4.692646 3.857460 1.453186 -4.877052 1.827347 -0.061865 -0.693747 8.046538 -3.916736 0.000000 -0.000000 0.000000 -4.009280 -3.378172 -1.726489 4.964493 -3.551494 4.011518 4.370283 -3.295932 -2.856064 0.000000 -0.000000 0.000000 0.255372 0.787038 7.956352 1.961428 -4.348444 6.224241 1.360945 -1.370765 -3.979043 -1.586109 0.812252 7.020039 2.602874 -2.317096 11.241187 -24.937803 -12.806994 4.721297 -58.416548 -19.792984 13.623505 6.942612 -18.481419 -3.589928 -0.002396 -8.024609 -2.976275 25.466146 13.706490 6.618088 56.511014 15.383698 14.236715 -12.398458 19.175560 -7.938376 2.250341 5.325460 -3.495661 
-0.756239 0.275669 1.003988 90.221365 1.319315 88.903750 4.712040 3.773858 1.396469 -4.906181 1.884126 0.323564 -0.670708 8.059315 -4.136386 0.000000 -0.000000 0.000000 -4.023633 -3.359898 -1.587828 4.957164 -3.519255 4.037903 4.387898 -3.273188 -2.965977 0.000000 -0.000000 0.000000 0.225919 0.851251 7.801157 2.000978 -4.319543 6.226765 1.352803 -1.353028 -3.954011 -1.449598 0.793649 7.202436 2.513334 -2.350524 11.413345 -24.982645 -12.731828 4.658742 -58.743359 -19.866788 13.785398 6.858373 -18.974069 -3.478861 0.011245 -7.901820 -3.105313 25.491981 13.746748 6.456232 56.373866 15.705812 14.277467 -12.469877 19.444766 -8.019369 2.212551 5.333624 -3.385056 
-0.755689 0.275719 1.003767 90.182310 1.327928 88.797900 4.716368 3.723617 1.345050 -4.915598 1.891809 0.719168 -0.629037 8.118306 -4.320392 0.000000 -0.000000 0.000000 -4.025329 -3.317148 -1.613605 4.932406 -3.480629 4.354209 4.356818 -3.277258 -3.132852 0.000000 -0.000000 0.000000 0.205762 0.889594 7.807112 2.025202 -4.267524 6.285173 1.333217 -1.331253 -3.895674 -1.347556 0.777031 7.302700 2.429823 -2.343671 11.552280 -25.057283 -12.601062 4.633106 -58.970879 -19.841569 13.895008 6.795746 -19.242150 -3.349831 -0.007691 -7.830393 -3.144637 25.559835 13.728118 6.339597 56.260891 15.898602 14.310263 -12.468760 19.526278 -8.020024 2.257422 5.294552 -3.312424 
-0.755148 0.275733 1.003472 90.091016 1.326595 88.596999 4.687641 3.659041 1.332219 -4.906731 1.881292 1.261418 -0.559047 8.251302 -4.591743 0.000000 -0.000000 0.000000 -4.021171 -3.227633 -1.659472 4.871348 -3.417772 4.881449 4.290067 -3.315392 -3.389761 0.000000 -0.000000 0.000000 0.196602 0.930308 7.913168 2.029455 -4.161299 6.415241 1.277178 -1.295169 -3.762156 -1.198651 0.722305 7.326185 2.308316 -2.327605 11.779177 -25.235116 -12.341519 4.627450 -59.254218 -19.713314 14.060995 6.657891 -19.478892 -2.915154 0.061350 -7.954758 -3.044583 25.734623 13.642374 6.189455 56.082471 16.154803 14.337221 -12.425899 19.571318 -7.953367 2.214167 5.310649 -3.188199 
-0.754805 0.275704 1.003160 90.005313 1.304125 88.446759 4.631680 3.568228 1.308662 -4.898913 1.885818 1.713574 -0.493875 8.386034 -4.841155 0.000000 -0.000000 0.000000 -4.041650 -3.164754 -1.724196 4.819837 -3.356675 5.340295 4.235898 -3.337046 -3.624277 0.000000 -0.000000 0.000000 0.203293 0.984490 8.011716 2.014289 -4.064132 6.592042 1.193395 -1.271716 -3.632310 -1.073998 0.637234 7.289392 2.214103 -2.355388 12.013464 -25.479708 -11.984931 4.659001 -59.561676 -19.472324 14.188737 6.531093 -19.605036 -2.528453 0.092902 -8.036108 -2.978948 25.961840 13.467924 6.065728 55.959053 16.328788 14.334791 -12.397162 19.602743 -7.936594 2.093863 5.381264 -3.042725 
-0.754590 0.275656 1.002905 89.995867 1.286793 88.401850 4.594963 3.491794 1.232452 -4.913689 1.863470 2.011627 -0.443383 8.468332 -5.001414 0.000000 -0.000000 0.000000 -4.063610 -3.158624 -1.824467 4.801701 -3.307914 5.652925 4.196022 -3.385665 -3.798954 0.000000 -0.000000 0.000000 0.247930 1.018108 8.036657 1.987927 -3.991615 6.732322 1.112237 -1.273217 -3.507049 -0.999345 0.526527 7.239945 2.104135 -2.372273 12.253129 -25.797084 -11.579092 4.833876 -59.918349 -19.105206 14.292541 6.430939 -19.493512 -2.155393 0.085518 -8.001015 -2.963124 26.162373 13.217715 6.033367 55.980389 16.360818 14.324213 -12.406117 19.564722 -7.974907 1.966228 5.339403 -3.092030 
-0.754270 0.275610 1.002808 90.026828 1.279745 88.454587 4.572123 3.475197 1.186311 -4.932058 1.810667 2.042086 -0.448194 8.517788 -5.033520 0.000000 -0.000000 0.000000 -4.075641 -3.125226 -1.858099 4.813268 -3.281280 5.663700 4.183491 -3.482389 -3.850254 0.000000 -0.000000 0.000000 0.300556 1.012202 7.974151 1.958150 -3.932943 6.819713 1.045873 -1.265873 -3.375027 -0.957231 0.402001 7.169520 2.027191 -2.390159 12.398902 -26.085548 -11.119402 5.052369 -60.417426 -18.617394 14.440108 6.315665 -18.966397 -1.717445 -0.049984 -7.924219 -2.865629 26.313925 12.907657 6.050503 56.121544 16.238710 14.339916 -12.365332 19.396201 -7.954462 1.854604 5.276280 -3.201421 
-0.753862 0.275496 1.002841 90.118030 1.273652 88.603123 4.548943 3.467912 1.147276 -4.935534 1.702915 1.870094 -0.498670 8.556657 -4.984574 0.000000 -0.000000 0.000000 -4.082324 -3.047730 -1.801898 4.861036 -3.246441 5.358586 4.202649 -3.689258 -3.810667 0.000000 -0.000000 0.000000 0.336358 0.989026 7.879818 1.927612 -3.881294 6.827166 1.004103 -1.266207 -3.175460 -0.907348 0.276789 6.931259 1.972888 -2.412215 12.301125 -26.370701 -10.490203 5.284086 -61.159721 -17.875742 14.705384 6.059049 -17.766567 -0.958816 -0.637362 -7.687647 -2.579886 26.433484 12.471900 6.007036 56.430004 15.875038 14.470715 -12.200332 18.921419 -7.704877 1.958822 5.079571 -3.311634 
